<svg xmlns="http://www.w3.org/2000/svg" viewBox="0 0 120 120" width="100%" height="100%">
  <defs>
    <linearGradient id="z-gold" x1="0" y1="0" x2="1" y2="1">
      <stop offset="0%" stop-color="#dbbd71" />
      <stop offset="50%" stop-color="#bba46c" />
      <stop offset="100%" stop-color="#93845b" />
    </linearGradient>
  </defs>
  <circle cx="60" cy="60" r="54" fill="none" stroke="url(#z-gold)" stroke-width="1" stroke-dasharray="2 4" opacity="0.6" />
  <circle cx="60" cy="60" r="48" fill="none" stroke="url(#z-gold)" stroke-width="0.75" opacity="0.9" />
  <g fill="none" stroke="url(#z-gold)" stroke-width="2.4" stroke-linecap="round" stroke-linejoin="round">
    <path d="M34 40 Q40 32 48 34 Q52 35 54 39" />
    <path d="M36 42 L82 42 Q86 42 84 46" />
    <path d="M82 46 L38 78" />
    <path d="M36 78 Q34 82 40 82 L84 82" />
    <path d="M84 82 Q92 84 86 90 Q80 94 74 90" />
  </g>
  <circle cx="60" cy="26" r="1.8" fill="#4d1b22" />
  <circle cx="60" cy="94" r="1.8" fill="#4d1b22" />
  <circle cx="30" cy="60" r="1.3" fill="url(#z-gold)" />
  <circle cx="90" cy="60" r="1.3" fill="url(#z-gold)" />
</svg>
